<svg xmlns="http://www.w3.org/2000/svg" width="862" height="446" viewBox="0 0 862 446">
<g>
<path d="M 851.75 222.75 L 851.50 437.50 L 431.25 437.75 L 11.00 438.00 L 11.25 223.25 L 11.50 8.50 L 38.75 8.23 L 66.00 7.97 L 66.00 82.05 C66.00,131.20 66.35,156.78 67.04,158.07 C68.83,161.41 72.03,160.29 78.58,154.00 C82.01,150.70 87.00,147.03 89.66,145.84 C94.52,143.67 98.38,143.43 116.00,144.25 L 121.50 144.50 L 121.76 76.25 L 122.01 8.00 L 170.00 8.00 L 170.00 82.07 C170.00,131.21 170.35,156.78 171.04,158.07 C172.67,161.12 175.00,160.39 182.33,154.54 C193.93,145.28 207.46,141.65 222.38,143.81 C233.33,145.39 235.66,145.32 236.41,143.37 C236.76,142.47 237.01,111.75 236.98,75.12 L 236.92 8.50 L 259.45 8.23 L 281.99 7.96 L 282.24 78.23 L 282.50 148.50 L 298.10 148.77 L 313.70 149.05 L 314.35 158.18 C314.71,163.20 315.00,169.21 315.00,171.53 C315.00,179.87 320.49,179.95 324.64,171.68 C334.83,151.38 342.41,145.86 357.63,147.64 C362.03,148.16 363.40,147.94 365.02,146.48 C366.96,144.73 367.00,143.23 367.00,76.35 L 367.00 8.00 L 394.72 8.00 L 395.42 16.58 C395.80,21.31 396.06,50.67 395.99,81.83 C395.93,113.00 395.90,139.69 395.94,141.15 L 396.00 143.80 L 408.75 143.69 C420.47,143.58 421.94,143.78 427.00,146.14 C430.02,147.55 434.70,150.54 437.38,152.77 C443.18,157.60 445.17,158.27 447.94,156.33 C449.99,154.89 450.00,154.52 450.00,81.44 L 450.00 8.00 L 607.00 8.00 L 607.00 86.57 C607.00,138.81 607.35,165.78 608.04,167.07 C609.72,170.22 612.61,169.30 616.68,164.31 C623.18,156.33 630.65,149.22 634.66,147.18 C640.04,144.45 649.55,142.67 655.18,143.33 C657.79,143.64 663.13,145.30 667.04,147.02 C673.74,149.96 674.28,150.04 676.57,148.54 L 679.00 146.95 L 679.00 8.00 L 759.00 8.00 L 759.00 77.38 C759.00,138.76 759.18,146.90 760.55,148.04 C761.83,149.10 763.59,148.83 770.80,146.47 C781.81,142.87 788.81,142.32 797.04,144.43 C804.39,146.32 809.96,149.34 816.52,155.02 C821.55,159.37 825.33,160.12 826.95,157.09 C827.62,155.84 827.98,130.50 827.98,83.84 C827.98,44.60 827.99,11.49 827.99,10.25 C828.00,8.04 828.22,8.00 840.00,8.00 L 852.00 8.00 ZM 523.28 374.89 C527.62,376.14 528.89,376.16 533.07,375.00 C544.80,371.74 554.55,352.50 559.66,322.50 C562.12,308.09 562.07,271.31 559.58,257.50 C556.23,238.93 554.10,231.95 548.17,220.22 C541.31,206.65 530.07,201.73 519.97,207.87 C512.41,212.47 503.62,230.24 501.37,245.50 C501.04,247.70 500.43,250.18 500.01,251.00 C497.89,255.15 496.52,271.83 496.64,292.00 C496.77,313.54 497.56,320.71 501.48,336.00 C502.40,339.58 503.32,343.32 503.53,344.33 C504.45,348.72 505.34,350.98 509.28,358.83 C514.02,368.29 518.59,373.53 523.28,374.89 ZM 315.26 335.77 L 314.83 398.03 L 366.50 397.50 L 366.76 327.06 C366.90,288.31 366.64,256.24 366.19,255.79 C365.73,255.33 363.45,254.63 361.11,254.23 C356.22,253.39 355.62,252.56 350.81,240.07 C346.69,229.32 341.98,224.00 336.61,224.00 C333.85,224.00 332.25,224.71 330.35,226.75 C324.67,232.86 320.49,244.69 317.36,263.50 C315.97,271.84 315.62,283.82 315.26,335.77 ZM 79.77 369.49 C82.92,371.63 84.60,372.00 91.09,372.00 L 98.71 372.00 L 103.91 366.50 C111.27,358.72 115.09,349.37 118.41,331.00 C123.53,302.68 122.87,257.44 116.99,234.46 C112.95,218.67 105.01,206.84 97.51,205.44 C85.83,203.24 76.90,207.29 72.00,216.99 C70.64,219.70 69.58,221.68 68.76,223.76 C65.92,230.92 65.96,239.22 66.18,282.62 C66.19,284.92 66.21,287.32 66.22,289.82 L 66.50 347.69 L 71.29 357.34 C74.88,364.57 77.00,367.61 79.77,369.49 ZM 647.94 370.09 C650.77,371.64 652.97,371.97 658.67,371.68 C666.82,371.26 669.90,369.37 675.75,361.19 L 679.00 356.65 L 679.00 217.86 L 676.02 213.53 C671.72,207.28 665.85,204.67 657.18,205.16 C644.68,205.87 638.62,213.28 632.40,235.50 C626.74,255.73 625.73,305.92 630.44,332.68 C633.84,352.01 640.36,365.95 647.94,370.09 ZM 399.98 370.25 C403.57,373.67 404.42,374.00 409.51,374.00 C412.58,374.00 416.35,373.35 417.87,372.56 C425.02,368.87 430.50,359.12 433.35,345.00 L 434.67 338.50 L 442.08 338.00 L 449.50 337.50 L 449.50 242.50 L 446.50 242.24 C444.85,242.10 441.62,241.74 439.33,241.44 L 435.16 240.90 L 433.96 233.70 C431.49,218.91 426.22,208.76 419.32,205.48 C414.05,202.98 404.34,203.77 400.23,207.04 C398.53,208.39 396.84,210.18 396.48,211.00 C396.12,211.82 395.87,247.15 395.93,289.50 L 396.03 366.50 ZM 781.50 373.27 C793.56,376.29 804.48,369.22 808.36,355.89 C810.30,349.21 810.92,346.61 812.53,345.61 C813.55,344.98 814.96,344.99 817.37,345.00 C817.71,345.00 818.07,345.00 818.46,345.00 C827.80,345.00 827.93,344.70 827.69,323.50 L 827.50 306.50 L 759.00 305.97 L 759.00 313.45 C759.00,324.01 761.64,341.63 764.55,350.55 C768.52,362.72 775.22,371.69 781.50,373.27 ZM 197.60 376.90 C200.99,379.57 211.46,379.83 216.63,377.37 C224.32,373.72 230.30,362.68 233.08,347.00 C233.86,342.59 234.43,331.67 234.46,320.50 L 234.50 301.50 L 222.50 301.20 C208.54,300.86 202.57,302.28 196.87,307.31 C187.40,315.65 183.42,341.18 188.65,359.96 C190.74,367.45 194.41,374.39 197.60,376.90 ZM 171.60 265.80 C173.49,266.85 177.89,265.50 183.10,262.26 C193.87,255.56 203.43,253.44 224.46,253.09 C230.23,252.99 233.72,252.51 234.26,251.72 C234.72,251.05 234.91,243.30 234.68,234.50 C234.18,215.79 232.83,210.32 227.11,203.88 L 223.23 199.50 L 204.21 198.81 L 200.17 202.47 C195.66,206.54 193.62,211.50 191.67,223.13 C190.25,231.64 190.09,231.74 177.75,231.90 L 170.00 232.00 L 170.00 248.45 C170.00,262.50 170.23,265.03 171.60,265.80 ZM 782.00 258.07 C806.37,258.72 809.58,258.59 811.66,256.87 C814.27,254.70 812.35,235.19 807.92,219.00 C803.99,204.61 798.11,199.00 787.00,199.00 C778.01,199.00 772.69,202.56 768.14,211.65 C763.67,220.58 759.34,243.29 760.17,253.50 L 760.50 257.50 Z" fill="rgb(252,0,0)"/>
<path d="M 0.00 223.00 L 0.00 0.00 L 431.00 0.00 L 862.00 0.00 L 862.00 223.00 L 862.00 446.00 L 431.00 446.00 L 0.00 446.00 L 0.00 223.00 ZM 851.75 222.75 L 852.00 8.00 L 840.00 8.00 C828.22,8.00 828.00,8.04 827.99,10.25 C827.99,11.49 827.98,44.60 827.98,83.84 C827.98,130.50 827.62,155.84 826.95,157.09 C825.33,160.12 821.55,159.37 816.52,155.02 C809.96,149.34 804.39,146.32 797.04,144.43 C788.81,142.32 781.81,142.87 770.80,146.47 C763.59,148.83 761.83,149.10 760.55,148.04 C759.18,146.90 759.00,138.76 759.00,77.38 L 759.00 8.00 L 719.00 8.00 L 679.00 8.00 L 679.00 77.48 L 679.00 146.95 L 676.57 148.54 C674.28,150.04 673.74,149.96 667.04,147.02 C663.13,145.30 657.79,143.64 655.18,143.33 C649.55,142.67 640.04,144.45 634.66,147.18 C630.65,149.22 623.18,156.33 616.68,164.31 C612.61,169.30 609.72,170.22 608.04,167.07 C607.35,165.78 607.00,138.81 607.00,86.57 L 607.00 8.00 L 528.50 8.00 L 450.00 8.00 L 450.00 81.44 C450.00,154.52 449.99,154.89 447.94,156.33 C445.17,158.27 443.18,157.60 437.38,152.77 C434.70,150.54 430.02,147.55 427.00,146.14 C421.94,143.78 420.47,143.58 408.75,143.69 L 396.00 143.80 L 395.94 141.15 C395.90,139.69 395.93,113.00 395.99,81.83 C396.06,50.67 395.80,21.31 395.42,16.58 L 394.72 8.00 L 380.86 8.00 L 367.00 8.00 L 367.00 76.35 C367.00,143.23 366.96,144.73 365.02,146.48 C363.40,147.94 362.03,148.16 357.63,147.64 C342.41,145.86 334.83,151.38 324.64,171.68 C320.49,179.95 315.00,179.87 315.00,171.53 C315.00,169.21 314.71,163.20 314.35,158.18 L 313.70 149.05 L 298.10 148.77 L 282.50 148.50 L 282.24 78.23 L 281.99 7.96 L 259.45 8.23 L 236.92 8.50 L 236.98 75.12 C237.01,111.75 236.76,142.47 236.41,143.37 C235.66,145.32 233.33,145.39 222.38,143.81 C207.46,141.65 193.93,145.28 182.33,154.54 C175.00,160.39 172.67,161.12 171.04,158.07 C170.35,156.78 170.00,131.21 170.00,82.07 L 170.00 8.00 L 146.01 8.00 L 122.01 8.00 L 121.76 76.25 L 121.50 144.50 L 116.00 144.25 C98.38,143.43 94.52,143.67 89.66,145.84 C87.00,147.03 82.01,150.70 78.58,154.00 C72.03,160.29 68.83,161.41 67.04,158.07 C66.35,156.78 66.00,131.20 66.00,82.05 L 66.00 7.97 L 38.75 8.23 L 11.50 8.50 L 11.25 223.25 L 11.00 438.00 L 431.25 437.75 L 851.50 437.50 L 851.75 222.75 ZM 315.26 335.77 C315.62,283.82 315.97,271.84 317.36,263.50 C320.49,244.69 324.67,232.86 330.35,226.75 C332.25,224.71 333.85,224.00 336.61,224.00 C341.98,224.00 346.69,229.32 350.81,240.07 C355.62,252.56 356.22,253.39 361.11,254.23 C363.45,254.63 365.73,255.33 366.19,255.79 C366.64,256.24 366.90,288.31 366.76,327.06 L 366.50 397.50 L 340.67 397.77 L 314.83 398.03 L 315.26 335.77 ZM 197.60 376.90 C194.41,374.39 190.74,367.45 188.65,359.96 C183.42,341.18 187.40,315.65 196.87,307.31 C202.57,302.28 208.54,300.86 222.50,301.20 L 234.50 301.50 L 234.46 320.50 C234.43,331.67 233.86,342.59 233.08,347.00 C230.30,362.68 224.32,373.72 216.63,377.37 C211.46,379.83 200.99,379.57 197.60,376.90 ZM 523.28 374.89 C518.59,373.53 514.02,368.29 509.28,358.83 C505.34,350.98 504.45,348.72 503.53,344.33 C503.32,343.32 502.40,339.58 501.48,336.00 C497.56,320.71 496.77,313.54 496.64,292.00 C496.52,271.83 497.89,255.15 500.01,251.00 C500.43,250.18 501.04,247.70 501.37,245.50 C503.62,230.24 512.41,212.47 519.97,207.87 C530.07,201.73 541.31,206.65 548.17,220.22 C554.10,231.95 556.23,238.93 559.58,257.50 C562.07,271.31 562.12,308.09 559.66,322.50 C554.55,352.50 544.80,371.74 533.07,375.00 C528.89,376.16 527.62,376.14 523.28,374.89 ZM 399.98 370.25 L 396.03 366.50 L 395.93 289.50 C395.87,247.15 396.12,211.82 396.48,211.00 C396.84,210.18 398.53,208.39 400.23,207.04 C404.34,203.77 414.05,202.98 419.32,205.48 C426.22,208.76 431.49,218.91 433.96,233.70 L 435.16 240.90 L 439.33 241.44 C441.62,241.74 444.85,242.10 446.50,242.24 L 449.50 242.50 L 449.50 290.00 L 449.50 337.50 L 442.08 338.00 L 434.67 338.50 L 433.35 345.00 C430.50,359.12 425.02,368.87 417.87,372.56 C416.35,373.35 412.58,374.00 409.51,374.00 C404.42,374.00 403.57,373.67 399.98,370.25 ZM 781.50 373.27 C775.22,371.69 768.52,362.72 764.55,350.55 C761.64,341.63 759.00,324.01 759.00,313.45 L 759.00 305.97 L 793.25 306.24 L 827.50 306.50 L 827.69 323.50 C827.93,344.70 827.80,345.00 818.46,345.00 C811.12,345.00 811.71,344.37 808.36,355.89 C804.48,369.22 793.56,376.29 781.50,373.27 ZM 79.77 369.49 C77.00,367.61 74.88,364.57 71.29,357.34 L 66.50 347.69 L 66.22 289.82 C65.91,226.44 65.66,229.55 72.00,216.99 C76.90,207.29 85.83,203.24 97.51,205.44 C105.01,206.84 112.95,218.67 116.99,234.46 C122.87,257.44 123.53,302.68 118.41,331.00 C115.09,349.37 111.27,358.72 103.91,366.50 L 98.71 372.00 L 91.09 372.00 C84.60,372.00 82.92,371.63 79.77,369.49 ZM 647.94 370.09 C640.36,365.95 633.84,352.01 630.44,332.68 C625.73,305.92 626.74,255.73 632.40,235.50 C638.62,213.28 644.68,205.87 657.18,205.16 C665.85,204.67 671.72,207.28 676.02,213.53 L 679.00 217.86 L 679.00 287.25 L 679.00 356.65 L 675.75 361.19 C669.90,369.37 666.82,371.26 658.67,371.68 C652.97,371.97 650.77,371.64 647.94,370.09 ZM 171.60 265.80 C170.23,265.03 170.00,262.50 170.00,248.45 L 170.00 232.00 L 177.75 231.90 C190.09,231.74 190.25,231.64 191.67,223.13 C193.62,211.50 195.66,206.54 200.17,202.47 L 204.21 198.81 L 213.72 199.16 L 223.23 199.50 L 227.11 203.88 C232.83,210.32 234.18,215.79 234.68,234.50 C234.91,243.30 234.72,251.05 234.26,251.72 C233.72,252.51 230.23,252.99 224.46,253.09 C203.43,253.44 193.87,255.56 183.10,262.26 C177.89,265.50 173.49,266.85 171.60,265.80 ZM 782.00 258.07 L 760.50 257.50 L 760.17 253.50 C759.34,243.29 763.67,220.58 768.14,211.65 C772.69,202.56 778.01,199.00 787.00,199.00 C798.11,199.00 803.99,204.61 807.92,219.00 C812.35,235.19 814.27,254.70 811.66,256.87 C809.58,258.59 806.37,258.72 782.00,258.07 Z" fill="rgb(254,253,252)"/>
</g>
</svg>